<?xml version="1.0" encoding="UTF-8"?>
<svg width="131px" height="204px" viewBox="0 0 131 204" version="1.1" xmlns="http://www.w3.org/2000/svg" xmlns:xlink="http://www.w3.org/1999/xlink">
    <!-- Generator: Sketch 46.2 (44496) - http://www.bohemiancoding.com/sketch -->
    <title>zafin_logo_vertical</title>
    <desc>Created with Sketch.</desc>
    <defs>
        <polygon id="path-1" points="0 203.981622 0 0.171837838 130.987728 0.171837838 130.987728 203.981622"></polygon>
    </defs>
    <g id="**Symbols" stroke="none" stroke-width="1" fill="none" fill-rule="evenodd">
        <g id="Logo/Default">
            <g id="zafin_logo_vertical">
                <g id="Group-9">
                    <mask id="mask-2" fill="white">
                        <use xlink:href="#path-1"></use>
                    </mask>
                    <g id="Clip-2"></g>
                    <polyline id="Fill-1" fill="#777776" mask="url(#mask-2)" points="0.0469391101 198.391225 14.8284637 172.311387 0 172.311387 0 166.502288 22.4930375 166.502288 22.4491663 172.289946 7.70322951 198.394901 22.4390422 198.394901 22.4390422 204 0.0386557377 204 0.0469391101 198.391225"></polyline>
                    <path d="M38.3081429,189.664252 L45.7573489,189.664252 L44.1377963,183.305027 C42.9505129,178.724523 42.5722389,176.407009 42.1945785,174.035586 L42.0865878,174.035586 C41.7089274,176.460613 41.2769649,178.832342 40.0356862,183.305027 L38.3081429,189.664252 Z M38.9020913,166.706288 L45.8113443,166.706288 L56.4450468,204 L49.4278033,204 L47.052623,194.784162 L36.9048782,194.784162 L34.4220141,204 L27.7824309,204 L38.9020913,166.706288 L38.9020913,166.706288 Z" id="Fill-3" fill="#777776" mask="url(#mask-2)"></path>
                    <polyline id="Fill-4" fill="#777776" mask="url(#mask-2)" points="62.8140398 166.706288 81.9219391 166.706288 81.9219391 172.257171 69.2913302 172.257171 69.2913302 181.796162 79.3850796 181.796162 79.3850796 187.239225 69.3453255 187.239225 69.3453255 204 62.8140398 204 62.8140398 166.706288"></polyline>
                    <polygon id="Fill-5" fill="#777776" mask="url(#mask-2)" points="89.4812834 203.981622 96.0665644 203.981622 96.0665644 166.706288 89.4812834 166.706288"></polygon>
                    <path d="M106.807337,166.706288 L113.122948,166.706288 L122.191094,185.568631 C123.594665,188.586667 124.836251,191.92755 125.645567,194.461009 L125.699869,194.461009 C125.429892,192.089586 124.99793,187.939441 124.99793,184.221189 L124.99793,166.706288 L130.989262,166.706288 L130.989262,204 L124.350293,204 L115.929785,186.215243 C113.878576,181.957892 113.014958,179.263009 112.15134,176.622342 L112.043349,176.622342 C112.313019,178.832342 112.744981,183.143297 112.744981,187.616595 L112.744981,204 L106.807337,204 L106.807337,166.706288" id="Fill-6" fill="#777776" mask="url(#mask-2)"></path>
                    <polyline id="Fill-7" fill="#777776" mask="url(#mask-2)" points="64.372541 146.590847 39.9307635 122.18773 64.372541 97.7846126 88.8146253 122.18773 64.372541 146.590847"></polyline>
                    <polyline id="Fill-8" fill="#FFF101" mask="url(#mask-2)" points="39.9307635 24.574955 64.372541 0.171837838 88.8146253 24.574955 88.8146253 73.3811892 39.9307635 24.574955"></polyline>
                </g>
                <polyline id="Fill-10" fill="#CBCCCB" points="89 73.3333333 64.4998462 49 40 73.3330279 40 122 64.4995387 97.6663612 64.4998462 97.6666667 89 73.3333333"></polyline>
            </g>
        </g>
    </g>
</svg>